<?xml version="1.0" encoding="UTF-8" standalone="no"?>
<!-- Created with Inkscape (http://www.inkscape.org/) -->

<svg
   width="128"
   height="64"
   viewBox="0 0 128 64.000003"
   version="1.1"
   id="svg1"
   inkscape:version="1.4.2 (ebf0e940d0, 2025-05-08)"
   sodipodi:docname="elemental.svg"
   xmlns:inkscape="http://www.inkscape.org/namespaces/inkscape"
   xmlns:sodipodi="http://sodipodi.sourceforge.net/DTD/sodipodi-0.dtd"
   xmlns="http://www.w3.org/2000/svg"
   xmlns:svg="http://www.w3.org/2000/svg">
  <sodipodi:namedview
     id="namedview1"
     pagecolor="#ffffff"
     bordercolor="#000000"
     borderopacity="0.25"
     inkscape:showpageshadow="2"
     inkscape:pageopacity="0.0"
     inkscape:pagecheckerboard="0"
     inkscape:deskcolor="#d1d1d1"
     inkscape:document-units="mm"
     showgrid="true"
     inkscape:zoom="6.5775662"
     inkscape:cx="63.777389"
     inkscape:cy="16.799527"
     inkscape:window-width="1920"
     inkscape:window-height="1080"
     inkscape:window-x="0"
     inkscape:window-y="0"
     inkscape:window-maximized="1"
     inkscape:current-layer="layer1">
    <inkscape:grid
       id="grid1"
       units="px"
       originx="0"
       originy="0"
       spacingx="2"
       spacingy="2"
       empcolor="#0099e5"
       empopacity="0.30196078"
       color="#0099e5"
       opacity="0.14901961"
       empspacing="1"
       enabled="true"
       visible="true"
       dotted="false" />
  </sodipodi:namedview>
  <defs
     id="defs1">
    <marker
       style="overflow:visible"
       id="ArrowWide"
       refX="0"
       refY="0"
       orient="auto-start-reverse"
       inkscape:stockid="Wide arrow"
       markerWidth="1"
       markerHeight="1"
       viewBox="0 0 1 1"
       inkscape:isstock="true"
       inkscape:collect="always"
       preserveAspectRatio="xMidYMid">
      <path
         style="fill:none;stroke:context-stroke;stroke-width:1;stroke-linecap:butt"
         d="M 3,-3 0,0 3,3"
         transform="rotate(180,0.125,0)"
         sodipodi:nodetypes="ccc"
         id="path1" />
    </marker>
  </defs>
  <g
     inkscape:label="Layer 1"
     inkscape:groupmode="layer"
     id="layer1">
    <path
       style="fill:none;stroke:#cccccc;stroke-width:2;stroke-linecap:round;stroke-opacity:1;marker-end:url(#ArrowWide);paint-order:stroke markers fill"
       d="M 116.90625,50.500001 C 123.19772,46.450879 127.00008,39.481843 127,32.000001 127.00008,24.518159 123.19772,17.549122 116.90625,13.5"
       id="path23" />
    <path
       style="fill:none;stroke:#cccccc;stroke-width:2;stroke-linecap:round;stroke-opacity:1;marker-end:url(#ArrowWide);paint-order:stroke markers fill"
       d="m 93.093758,13.5 c -6.291469,4.049122 -10.093832,11.018159 -10.09375,18.500001 -8.1e-5,7.481842 3.802282,14.450878 10.09375,18.5"
       id="path22" />
    <path
       style="fill:none;stroke:#cccccc;stroke-width:2;stroke-linecap:round;stroke-opacity:1;paint-order:stroke markers fill;marker-start:url(#ArrowWide)"
       d="M 29.205079,21.890626 17.953125,41.582032"
       id="path14" />
    <path
       style="fill:none;stroke:#cccccc;stroke-width:2;stroke-linecap:round;stroke-opacity:1;paint-order:stroke markers fill;marker-start:url(#ArrowWide)"
       d="M 54.046876,41.582032 42.794923,21.890626"
       id="path13" />
    <path
       style="fill:none;stroke:#cccccc;stroke-width:2;stroke-linecap:round;stroke-opacity:1;paint-order:stroke markers fill;marker-start:url(#ArrowWide)"
       d="m 24.000001,52.000001 h 24"
       id="path12" />
    <path
       d="m 12,40.000001 a 11.999998,11.999997 0 0 0 -12,12 11.999998,11.999997 0 0 0 12,12 11.999998,11.999997 0 0 0 12.000001,-12 11.999998,11.999997 0 0 0 -12.000001,-12 z"
       style="fill:#ff1b1b;stroke-width:2.00001;stroke-linecap:round;paint-order:stroke markers fill"
       id="path9" />
    <path
       d="m 36.000001,0 a 12,11.999999 0 0 0 -12,12 12,11.999999 0 0 0 12,12.000001 12,11.999999 0 0 0 12,-12.000001 12,11.999999 0 0 0 -12,-12 z"
       style="fill:#00f125;stroke-width:2.00001;stroke-linecap:round;paint-order:stroke markers fill"
       id="path11" />
    <path
       d="m 60.000001,40.000001 a 12.000002,12.000001 0 0 0 -12,12 12.000002,12.000001 0 0 0 12,12 12.000002,12.000001 0 0 0 12.000001,-12 12.000002,12.000001 0 0 0 -12.000001,-12 z"
       style="fill:#3397ff;stroke-width:2.00001;stroke-linecap:round;paint-order:stroke markers fill"
       id="path7" />
    <path
       d="m 105,40.000001 a 12,11.999999 0 0 0 -11.999992,12 12,11.999999 0 0 0 11.999992,12 12,11.999999 0 0 0 12,-12 12,11.999999 0 0 0 -12,-12 z"
       style="fill:#d800e4;stroke-width:2;stroke-linecap:round;paint-order:stroke markers fill"
       id="path21" />
    <path
       d="M 105,0 A 12,11.999999 0 0 0 93.000008,12 12,11.999999 0 0 0 105,24.000001 12,11.999999 0 0 0 117,12 12,11.999999 0 0 0 105,0 Z"
       style="fill:#f5f918;stroke-width:2;stroke-linecap:round;paint-order:stroke markers fill"
       id="path19" />
  </g>
</svg>
